<?xml version="1.0" standalone="no"?>
<!DOCTYPE svg PUBLIC "-//W3C//DTD SVG 20010904//EN"
 "http://www.w3.org/TR/2001/REC-SVG-20010904/DTD/svg10.dtd">
<svg version="1.0" xmlns="http://www.w3.org/2000/svg"
 width="454.000000pt" height="689.000000pt" viewBox="0 0 454.000000 689.000000"
 preserveAspectRatio="xMidYMid meet">
<metadata>
Created by potrace 1.15, written by Peter Selinger 2001-2017
</metadata>
<g transform="translate(0.000000,689.000000) scale(0.100000,-0.100000)"
fill="#000000" stroke="none">
<path d="M4044 5894 c4 -11 -8 -29 -39 -56 -46 -41 -59 -66 -27 -53 34 14 52
17 52 9 -1 -22 -20 -34 -74 -48 -69 -18 -68 -18 -60 -40 6 -15 14 -17 52 -11
43 6 45 6 32 -12 -8 -10 -36 -41 -63 -69 -31 -32 -45 -54 -38 -58 20 -13 50 4
96 52 l45 47 0 -37 c0 -40 -24 -63 -54 -52 -11 4 -16 0 -16 -14 0 -12 5 -24
10 -27 11 -7 76 13 98 29 18 13 25 1 12 -23 -9 -18 -14 -19 -31 -10 -27 14
-37 4 -21 -21 20 -32 15 -37 -58 -55 -45 -11 -70 -22 -70 -31 0 -18 23 -18 84
1 76 23 76 23 76 -49 0 -49 -5 -69 -21 -90 -19 -24 -26 -27 -63 -21 l-41 6 24
-21 c16 -13 37 -20 67 -20 39 0 46 3 54 26 6 14 10 61 10 104 0 88 3 92 70 83
37 -5 42 -4 38 13 -2 15 -14 20 -62 24 -53 4 -58 6 -42 19 27 22 48 70 41 93
-6 16 -13 19 -36 14 -27 -5 -29 -3 -29 24 0 35 -4 34 50 15 57 -20 70 -19 70
5 0 22 -34 40 -73 40 -52 1 -60 46 -9 52 19 2 27 9 27 23 0 15 -8 21 -32 23
-37 4 -44 25 -13 42 27 14 26 55 -2 74 -29 20 -42 20 -34 0z"/>
<path d="M3048 5828 l-3 -73 -32 -3 c-41 -4 -43 -18 -3 -27 50 -11 32 -59 -26
-70 -30 -5 -40 -2 -56 15 -20 21 -20 21 1 44 12 13 26 37 30 54 11 36 0 87
-17 87 -11 0 -82 -103 -119 -173 -20 -39 -9 -68 26 -66 28 1 27 -6 -10 -71
-33 -58 -33 -85 1 -85 23 0 26 -34 10 -119 -11 -59 -5 -81 21 -81 14 0 23 16
38 68 l20 67 48 12 c27 6 50 9 52 8 8 -8 -49 -115 -68 -127 -12 -7 -21 -18
-21 -24 0 -15 26 -25 45 -18 18 7 61 96 70 146 7 36 8 37 58 40 58 3 70 19 30
37 -19 9 -29 9 -31 2 -2 -6 -13 -11 -24 -11 -16 0 -19 5 -14 23 3 12 9 55 13
95 6 70 7 72 33 72 41 0 43 -11 8 -47 l-33 -34 45 7 c49 7 80 28 80 54 0 29
-23 40 -87 40 -54 0 -63 3 -63 18 0 27 22 50 49 54 40 5 38 28 -2 28 l-34 0 5
50 c4 47 -7 80 -29 80 -4 0 -9 -33 -11 -72z m-47 -241 c11 -21 23 -31 36 -30
16 2 19 -3 15 -27 l-4 -29 -39 25 c-35 22 -40 23 -46 8 -4 -11 2 -23 16 -33
17 -13 19 -19 9 -29 -8 -8 -9 -12 -1 -12 7 0 15 5 18 10 10 15 35 12 35 -5 0
-8 -6 -15 -12 -15 -7 0 -31 -3 -52 -7 -38 -6 -39 -5 -34 20 7 39 -4 33 -24
-11 l-16 -37 -1 37 c-1 20 -5 39 -10 43 -6 3 2 32 17 65 23 49 31 59 52 59 18
1 29 -8 41 -32z"/>
<path d="M1945 5875 c-33 -8 -73 -14 -89 -14 -25 -1 -27 -4 -22 -23 4 -13 14
-50 22 -82 17 -69 31 -89 55 -83 12 3 21 -2 25 -16 8 -27 -19 -47 -63 -47 -18
0 -33 -4 -33 -10 0 -5 20 -10 45 -10 36 0 45 -3 45 -17 0 -35 -17 -44 -103
-55 -48 -6 -87 -15 -87 -20 0 -5 11 -14 25 -20 20 -9 37 -8 84 7 32 9 64 16
69 14 19 -7 -104 -145 -173 -194 -69 -50 -86 -80 -37 -69 46 11 75 30 127 83
27 28 52 51 55 51 4 0 5 -12 3 -27 -6 -45 11 -107 30 -111 11 -2 17 3 17 14 0
15 3 14 24 -6 40 -37 53 -22 61 73 4 46 4 99 0 116 -6 26 -11 31 -36 31 -32 0
-35 6 -14 34 13 17 23 18 90 13 75 -7 76 -6 73 16 -3 19 -10 22 -60 25 -32 2
-58 5 -58 8 0 2 12 23 26 45 26 41 26 69 0 69 -7 0 -16 -9 -19 -20 -3 -14 -14
-20 -31 -20 -32 0 -35 27 -3 32 19 3 25 16 46 101 14 58 21 101 15 106 -18 17
-50 19 -109 6z"/>
<path d="M3457 5883 c-4 -3 -7 -39 -7 -79 l0 -73 -57 -16 c-32 -9 -66 -18 -75
-21 -26 -8 -22 -29 8 -53 33 -26 34 -26 78 4 l36 24 0 -29 c0 -20 -23 -65 -70
-136 -38 -58 -70 -114 -70 -124 0 -9 26 -46 57 -81 42 -47 64 -64 82 -64 l26
0 8 188 c6 163 10 193 28 230 17 32 18 39 5 28 -10 -8 -16 -9 -16 -3 0 6 9 16
20 22 27 14 26 40 -1 40 -21 0 -21 3 -15 75 6 69 5 75 -12 75 -10 0 -22 -3
-25 -7z"/>
<path d="M1447 5873 c-4 -3 -7 -36 -7 -72 0 -36 -3 -76 -6 -88 -5 -18 -9 -20
-25 -10 -29 18 -31 4 -9 -49 15 -34 19 -59 15 -84 -10 -58 -15 -68 -35 -73
-17 -4 -20 0 -20 24 0 18 7 32 20 39 11 6 20 17 20 24 0 8 -9 16 -20 19 -16 4
-20 13 -20 49 0 23 7 52 15 62 8 11 15 30 15 43 0 19 -5 23 -30 23 -32 0 -100
-29 -100 -42 0 -5 14 -17 30 -26 17 -10 28 -23 25 -30 -3 -8 -5 -29 -5 -48 0
-29 -5 -36 -35 -48 -34 -15 -54 -40 -41 -53 3 -4 22 -2 41 4 l35 11 0 -35 c0
-27 -3 -34 -15 -29 -18 7 -19 2 -3 -23 10 -17 8 -23 -13 -40 -13 -11 -28 -21
-34 -21 -16 -1 -47 -50 -41 -66 11 -28 42 -13 111 55 38 38 71 68 72 67 8 -8
-30 -108 -57 -149 -16 -26 -30 -50 -30 -52 0 -3 11 -5 25 -5 35 0 52 31 84
159 27 106 41 144 41 108 0 -18 16 -23 22 -8 2 5 12 11 23 13 17 2 20 -3 23
-38 2 -28 -2 -47 -13 -58 -9 -9 -14 -20 -11 -25 3 -5 -1 -12 -10 -15 -23 -9
-27 -8 -20 9 8 22 -8 18 -33 -9 -12 -13 -19 -26 -14 -29 5 -3 60 -3 121 0 79
4 112 10 112 18 0 17 -23 25 -67 25 l-36 0 7 67 c4 37 9 69 12 72 2 2 10 -4
18 -14 7 -10 18 -15 24 -11 22 13 12 38 -18 49 -27 10 -30 16 -30 52 0 75 11
115 31 115 21 0 26 28 6 36 -7 2 -39 -5 -71 -16 -70 -24 -66 -23 -62 -7 3 6 7
40 10 75 4 47 3 62 -7 62 -8 0 -17 -3 -20 -7z"/>
<path d="M2416 5847 c4 -20 0 -26 -27 -37 -36 -15 -89 -57 -89 -71 0 -5 20 -6
45 -2 40 5 45 4 44 -13 -1 -43 -16 -57 -90 -84 -57 -20 -74 -31 -74 -46 0 -28
45 -30 95 -4 23 12 43 20 45 18 2 -2 -16 -38 -41 -81 -30 -51 -44 -87 -42
-104 4 -34 19 -38 48 -13 13 11 26 20 30 20 3 0 3 -33 -2 -72 -4 -40 -5 -83
-2 -95 10 -37 33 -27 40 17 5 32 9 38 20 29 34 -28 102 31 119 104 4 15 10 27
14 27 13 0 127 -91 144 -115 25 -33 37 -32 37 4 0 34 -42 75 -124 121 l-53 30
8 43 c4 23 8 48 9 55 0 6 11 12 25 12 28 0 75 60 75 97 0 20 -5 23 -37 23 -28
0 -34 -3 -23 -10 13 -8 13 -13 -2 -37 -9 -15 -20 -29 -25 -30 -5 -2 -5 42 -1
98 8 109 6 119 -20 119 -15 0 -17 -14 -18 -118 0 -122 -19 -252 -36 -252 -6 0
-7 -7 -4 -16 7 -18 -26 -95 -48 -113 -6 -5 -22 -7 -35 -4 -22 6 -22 8 -16 77
6 52 14 78 30 98 16 19 26 23 33 16 20 -20 39 0 49 51 8 41 8 51 -3 51 -8 0
-14 11 -14 24 0 29 -18 44 -26 23 -3 -9 -14 -12 -30 -9 -34 6 -35 59 -1 64 19
3 22 9 21 45 0 26 -8 51 -19 63 -24 27 -37 25 -29 -3z"/>
<path d="M884 5798 c7 -38 -37 -213 -59 -238 -8 -9 -12 -19 -9 -22 8 -8 -29
-79 -62 -117 -19 -23 -32 -30 -46 -25 -17 5 -19 2 -16 -28 3 -29 7 -33 34 -36
28 -3 35 2 62 45 17 26 40 69 53 95 l22 47 46 -24 c71 -36 168 -111 193 -150
31 -47 50 -46 46 2 -3 32 -12 44 -59 83 -31 25 -91 63 -134 85 -87 45 -83 25
-44 187 19 80 21 99 10 112 -8 9 -20 16 -28 16 -12 0 -14 -8 -9 -32z"/>
<path d="M3593 5787 c-18 -6 -34 -18 -35 -27 -2 -22 -4 -72 -6 -172 -2 -76 -4
-88 -19 -88 -17 -1 -17 -2 0 -15 12 -9 17 -20 13 -33 -10 -31 -17 -232 -8
-232 20 0 32 28 32 72 0 41 3 48 19 48 11 0 31 14 46 31 l26 32 45 -44 c24
-24 44 -49 44 -56 0 -7 9 -13 20 -13 14 0 20 7 20 24 0 25 -24 54 -84 101
l-38 31 13 63 c11 56 10 65 -4 76 -14 10 -15 19 -1 99 9 48 13 94 10 102 -6
16 -46 16 -93 1z"/>
<path d="M491 5729 c-39 -36 -54 -115 -31 -159 7 -14 3 -32 -21 -77 -25 -47
-30 -66 -26 -103 7 -64 40 -90 114 -90 49 0 59 4 89 34 30 30 34 41 34 84 0
46 -3 52 -48 94 l-49 46 69 70 c64 66 84 102 55 102 -7 0 -22 -7 -33 -15 -19
-13 -23 -12 -44 10 -29 31 -78 33 -109 4z m67 -246 c44 -33 52 -43 52 -66 0
-24 -45 -64 -81 -72 -41 -9 -79 17 -79 54 0 25 51 111 66 111 3 0 22 -12 42
-27z"/>
<path d="M3200 4959 c-24 -11 -58 -30 -75 -43 -47 -36 -76 -49 -135 -61 -53
-11 -54 -12 -31 -24 13 -7 39 -13 57 -13 19 0 34 -4 34 -8 0 -7 -51 -29 -100
-43 -26 -7 91 -37 144 -36 47 0 152 24 201 44 40 17 -2 -20 -50 -44 -29 -14
-45 -29 -45 -41 0 -13 5 -17 20 -13 11 3 27 0 35 -7 20 -16 32 -5 16 14 -14
17 12 26 127 48 77 14 118 -1 159 -61 29 -41 43 -50 43 -28 1 19 23 43 47 51
34 11 73 -32 73 -80 0 -38 -30 -97 -58 -113 -13 -7 -16 -31 -16 -144 l-1 -135
25 10 c54 21 130 91 160 149 27 51 60 189 60 246 -1 113 -18 181 -61 239 -37
51 -118 115 -143 114 -6 -1 6 -10 26 -20 20 -11 43 -29 51 -40 7 -11 17 -17
20 -13 4 3 7 0 7 -7 0 -7 8 -19 18 -26 16 -12 16 -13 -4 -14 -12 0 -25 7 -28
15 -5 13 -10 14 -28 4 -21 -11 -22 -11 -9 5 8 9 11 20 7 23 -4 4 -10 3 -14 -3
-11 -18 -44 -31 -90 -38 -27 -3 -41 -2 -37 4 3 6 2 10 -3 10 -6 0 -12 -7 -16
-15 -7 -21 -43 -19 -55 3 -10 16 -10 16 -11 0 0 -13 -8 -18 -29 -18 -17 0 -33
5 -36 10 -3 6 -11 10 -16 10 -6 0 -8 -4 -5 -8 3 -5 -47 -9 -110 -9 -88 0 -114
2 -114 13 0 7 -4 15 -9 18 -5 4 -7 -3 -4 -14 6 -23 0 -25 -29 -9 -15 8 -19 8
-14 0 11 -17 -10 -13 -28 5 -14 14 -20 11 -17 -8 0 -7 -25 -5 -33 3 -7 7 109
81 157 101 23 9 35 17 27 17 -8 0 -35 -9 -60 -20z"/>
<path d="M2831 2288 c-44 -105 -54 -210 -48 -493 5 -228 9 -275 31 -380 14
-66 26 -121 26 -121 0 -1 21 -10 48 -20 33 -13 72 -19 129 -19 127 0 127 0
198 355 68 334 116 460 195 502 64 34 146 2 201 -79 72 -103 111 -266 137
-558 l17 -190 35 -18 c28 -14 49 -17 103 -13 91 7 124 27 164 102 98 183 121
522 56 809 -14 60 -17 67 -26 48 -24 -54 -220 -82 -477 -67 -85 5 -198 5 -250
1 -129 -11 -392 -2 -458 16 -30 8 -61 22 -70 31 -15 15 -15 21 0 78 10 34 16
64 14 65 -2 2 -13 -20 -25 -49z"/>
</g>
</svg>
